<mxfile host="app.diagrams.net" agent="Mozilla/5.0 (X11; Linux x86_64) AppleWebKit/537.36 (KHTML, like Gecko) Chrome/132.0.0.0 Safari/537.36" version="26.0.6">
  <diagram name="Page-1" id="QMDjN_9wCShRY0aydMNB">
    <mxGraphModel dx="1434" dy="788" grid="1" gridSize="10" guides="1" tooltips="1" connect="1" arrows="1" fold="1" page="1" pageScale="1" pageWidth="850" pageHeight="1100" math="0" shadow="0">
      <root>
        <mxCell id="0" />
        <mxCell id="1" parent="0" />
        <mxCell id="n9j5-TrXBwmxhPfSCFU_-1" value="a" style="swimlane;startSize=0;" vertex="1" parent="1">
          <mxGeometry x="320" y="250" width="290" height="260" as="geometry" />
        </mxCell>
        <mxCell id="n9j5-TrXBwmxhPfSCFU_-2" value="lorem ipsum&lt;div&gt;&lt;br&gt;&lt;/div&gt;" style="text;html=1;align=center;verticalAlign=middle;whiteSpace=wrap;rounded=0;" vertex="1" parent="1">
          <mxGeometry x="400" y="400" width="190" height="20" as="geometry" />
        </mxCell>
        <mxCell id="n9j5-TrXBwmxhPfSCFU_-3" value="" style="ellipse;whiteSpace=wrap;html=1;" vertex="1" parent="1">
          <mxGeometry x="120" y="150" width="120" height="80" as="geometry" />
        </mxCell>
        <mxCell id="n9j5-TrXBwmxhPfSCFU_-4" value="&lt;h1 style=&quot;margin-top: 0px;&quot;&gt;asdads&lt;/h1&gt;&lt;div&gt;adasda&lt;/div&gt;&lt;div&gt;&lt;br&gt;&lt;/div&gt;&lt;div&gt;1. 13123&lt;/div&gt;&lt;div&gt;2. 231321&lt;/div&gt;&lt;div&gt;&lt;br&gt;&lt;/div&gt;" style="text;html=1;whiteSpace=wrap;overflow=hidden;rounded=0;" vertex="1" parent="1">
          <mxGeometry x="250" y="60" width="180" height="120" as="geometry" />
        </mxCell>
      </root>
    </mxGraphModel>
  </diagram>
</mxfile>
